<svg id="Layer_1" data-name="Layer 1" xmlns="http://www.w3.org/2000/svg" xmlns:xlink="http://www.w3.org/1999/xlink" viewBox="0 0 1080 1080"><defs><style>.cls-1{fill:url(#linear-gradient);}.cls-2{fill:url(#linear-gradient-2);}.cls-3{fill:url(#linear-gradient-3);}</style><linearGradient id="linear-gradient" x1="334.39" y1="720.95" x2="749.46" y2="720.95" gradientUnits="userSpaceOnUse"><stop offset="0" stop-color="#76a7d9"/><stop offset="1" stop-color="#3459a7"/></linearGradient><linearGradient id="linear-gradient-2" x1="553.38" y1="470.45" x2="751.53" y2="470.45" xlink:href="#linear-gradient"/><linearGradient id="linear-gradient-3" x1="328.65" y1="490.99" x2="498.95" y2="490.99" xlink:href="#linear-gradient"/></defs><path class="cls-1" d="M398.3,764.09a2.58,2.58,0,0,1-1.34-.31l-13.7-18.87-48.87-67.1H749.46a241.66,241.66,0,0,1-53,64.86l-1,.86L678.74,764s0,0,0,0a5.59,5.59,0,0,1-1.15.16Z"/><path d="M721.79,692.94a226.89,226.89,0,0,1-35.27,38.27l-2,1.72L682.85,735l-11.41,14H404.94l-9.44-13-31.36-43.06H721.79m29.57-30.28H332.48c-5.59,0-10.71,2.51-13.51,6.54,0,.06-.09.09-.12.15a11.28,11.28,0,0,0,.28,13.23L371,753.82,385,773c2.83,3.89,7.89,6.27,13.34,6.27H677.56a16.68,16.68,0,0,0,12.91-5.7l15.84-19.4a257.52,257.52,0,0,0,56.53-69.23l1.43-1.75a11.72,11.72,0,0,0,2.42-5.44,11.1,11.1,0,0,0-1.5-8.06c-2.7-4.3-8-7-13.83-7Z"/><path class="cls-2" d="M553.38,623.84V317.06c2,.31,4.12.65,6.25,1l1.78.8C629.63,348.4,684,409.65,718.48,496a529.91,529.91,0,0,1,24.1,77.43,465.5,465.5,0,0,1,8.95,50.38Z"/><path d="M568.52,339c58.37,29.85,105.16,85.77,135.9,162.66a514.86,514.86,0,0,1,23.41,75.21c2.88,12.5,4.9,23.35,6.28,31.83H568.52V339m-23-38.22a13.85,13.85,0,0,0-1.51.71,13.2,13.2,0,0,0-2.41,2,11.82,11.82,0,0,0-3.36,8.18V626.74c0,6.76,5.86,12.24,13.1,12.24H753.9a13.53,13.53,0,0,0,9.64-4,11.73,11.73,0,0,0,3.41-9.31c-.13-1.52-2.19-23.44-9.62-55.65a545.91,545.91,0,0,0-24.79-79.64C696.33,399.83,639.33,336.1,567.38,305c-1.09-.47-2.14-1-3.23-1.46-6.14-1.14-12.34-2.09-18.63-2.76Z"/><path class="cls-3" d="M328.65,623.84a417.47,417.47,0,0,1,7.6-42A464.11,464.11,0,0,1,357.35,514c30.42-76.1,78.22-129.77,138.31-155.3,1.11-.21,2.2-.39,3.29-.57v265.7Z"/><path d="M483.8,381.3V608.69H346.24c1.16-6.63,2.71-14.58,4.76-23.49a448.6,448.6,0,0,1,20.41-65.57c25.78-64.5,64.38-111.88,112.39-138.33m23.89-39.62c-5.53.59-11,1.42-16.37,2.43-64.61,26.87-115.72,83.45-148,164.28a479.75,479.75,0,0,0-21.79,70C315,606.71,313.16,626,313,627.32a10.33,10.33,0,0,0,3,8.18,11.91,11.91,0,0,0,8.47,3.48H502.58c6.35,0,11.51-4.82,11.51-10.76v-277a10.59,10.59,0,0,0-5.08-8.92,10,10,0,0,0-1.32-.63Z"/></svg>