<svg id="Layer_1" data-name="Layer 1" xmlns="http://www.w3.org/2000/svg" xmlns:xlink="http://www.w3.org/1999/xlink" viewBox="0 0 1080 1080"><defs><style>.cls-1{fill:url(#linear-gradient);}.cls-2{fill:#ee4824;}.cls-3{fill:#76a7d9;}</style><linearGradient id="linear-gradient" x1="278.21" y1="540" x2="801.79" y2="540" gradientUnits="userSpaceOnUse"><stop offset="0" stop-color="#fff"/><stop offset="0.4" stop-color="#f1f1f2"/><stop offset="1" stop-color="#d0d2d3"/></linearGradient></defs><path class="cls-1" d="M540,801.78c-144.35,0-261.79-117.43-261.79-261.78S395.65,278.22,540,278.22,801.79,395.65,801.79,540,684.35,801.78,540,801.78Z"/><path d="M540,293.35C676,293.35,786.65,404,786.65,540S676,786.65,540,786.65,293.35,676,293.35,540,404,293.35,540,293.35m0-30.28c-152.94,0-276.93,124-276.93,276.93S387.06,816.93,540,816.93,816.93,692.94,816.93,540,692.94,263.07,540,263.07Z"/><path class="cls-2" d="M487.75,485.63,517,514a34.68,34.68,0,0,1,49.61,48.26L593,588l82-184Z"/><path d="M593,597.08a9.05,9.05,0,0,1-6.33-2.57L560.23,568.8a9.08,9.08,0,0,1-.61-12.36A25.43,25.43,0,0,0,565.76,540,25.6,25.6,0,0,0,523,520.83a9.1,9.1,0,0,1-12.37-.28l-29.21-28.41a9.08,9.08,0,0,1,2.7-14.84l187.25-81.62a9.08,9.08,0,0,1,11.93,12l-82,184a9,9,0,0,1-6.58,5.22A8.36,8.36,0,0,1,593,597.08Zm-14.61-36L590,572.41l67.18-150.73L503.78,488.55l14,13.65A43.36,43.36,0,0,1,540,496.06,44,44,0,0,1,583.93,540,43.44,43.44,0,0,1,578.38,561.11Z"/><path class="cls-3" d="M540,574.84A34.72,34.72,0,0,1,517,514l-29.21-28.4L405,676l188-88-26.42-25.7A34.56,34.56,0,0,1,540,574.84Z"/><path d="M405,685.08a9.08,9.08,0,0,1-8.33-12.7L479.42,482a9.08,9.08,0,0,1,14.66-2.89l29.22,28.4a9.08,9.08,0,0,1-.31,13.31A25.39,25.39,0,0,0,514.23,540a25.61,25.61,0,0,0,45.37,16.45,9.1,9.1,0,0,1,13.3-.67l26.42,25.7a9.08,9.08,0,0,1-2.48,14.74l-188,88A9,9,0,0,1,405,685.08Zm85.84-183.77L422.91,657.58l154.32-72.24-10.75-10.46a43.38,43.38,0,0,1-26.48,9,43.78,43.78,0,0,1-35.62-69.45Z"/></svg>