<svg id="Layer_1" data-name="Layer 1" xmlns="http://www.w3.org/2000/svg" xmlns:xlink="http://www.w3.org/1999/xlink" viewBox="0 0 1080 1080"><defs><style>.cls-1{fill:url(#linear-gradient);}.cls-2{fill:#76a7d9;}.cls-3{fill:url(#linear-gradient-2);}.cls-4{fill:#ee4824;}</style><linearGradient id="linear-gradient" x1="450.4" y1="223.89" x2="629.6" y2="403.1" gradientUnits="userSpaceOnUse"><stop offset="0" stop-color="#76a7d9"/><stop offset="1" stop-color="#3459a7"/></linearGradient><linearGradient id="linear-gradient-2" x1="354.97" y1="411.66" x2="725.02" y2="781.7" xlink:href="#linear-gradient"/></defs><path class="cls-1" d="M602.67,221.53H477.33A59.33,59.33,0,0,0,418,280.86v65.27a59.33,59.33,0,0,0,59.33,59.33H602.67A59.34,59.34,0,0,0,662,346.13V280.86A59.34,59.34,0,0,0,602.67,221.53Zm-3.41,107.82a28.82,28.82,0,0,1-28.82,28.81H509.56a28.82,28.82,0,0,1-28.82-28.81v-31.7a28.82,28.82,0,0,1,28.82-28.82h60.88a28.82,28.82,0,0,1,28.82,28.82Z"/><path class="cls-2" d="M418,280.87a59.41,59.41,0,0,1,59.33-59.34H602.67A59.41,59.41,0,0,1,662,280.87a59.41,59.41,0,0,0-59.33-59.34H477.33A59.41,59.41,0,0,0,418,280.87v0Zm62.74,16.77a28.85,28.85,0,0,1,28.82-28.81h60.88a28.85,28.85,0,0,1,28.81,28.81,28.85,28.85,0,0,0-28.81-28.81H509.56a28.85,28.85,0,0,0-28.82,28.81v0Z"/><path d="M602.67,206.39H477.33a74.56,74.56,0,0,0-74.47,74.47v65.27a74.56,74.56,0,0,0,74.47,74.47H602.67a74.56,74.56,0,0,0,74.47-74.47V280.86a74.56,74.56,0,0,0-74.47-74.47ZM477.33,390.32a44.25,44.25,0,0,1-44.19-44.19V280.86a44.25,44.25,0,0,1,44.19-44.19H602.67a44.25,44.25,0,0,1,44.19,44.19v65.27a44.25,44.25,0,0,1-44.19,44.19Zm93.11-136.63H509.56a44,44,0,0,0-44,44v31.69a44,44,0,0,0,44,44h60.88a44,44,0,0,0,43.95-44V297.65a44,44,0,0,0-43.95-44ZM509.56,343a13.69,13.69,0,0,1-13.68-13.68V297.65A13.7,13.7,0,0,1,509.56,284h60.88a13.69,13.69,0,0,1,13.67,13.68v31.69A13.68,13.68,0,0,1,570.44,343Z"/><path class="cls-3" d="M540,858.47c-144.35,0-261.79-117.44-261.79-261.79S395.65,334.89,540,334.89,801.79,452.33,801.79,596.68,684.35,858.47,540,858.47Z"/><path d="M540,350c136,0,246.65,110.65,246.65,246.65S676,843.33,540,843.33,293.35,732.68,293.35,596.68,404,350,540,350m0-30.28c-152.94,0-276.93,124-276.93,276.93S387.06,873.61,540,873.61s276.93-124,276.93-276.93S692.94,319.75,540,319.75Z"/><polygon class="cls-4" points="662 364.22 719.92 407.2 719.92 787.66 662 824.35 662 364.22"/><path d="M725.35,405.46c-8.36,0-15.14,7.16-15.14,16v353c0,8.84,6.78,16,15.14,16s15.14-7.16,15.14-16v-353c0-8.84-6.78-16-15.14-16Z"/><path d="M662,351.05c-8.36,0-15.14,8.68-15.14,19.4V822.91c0,10.72,6.78,19.4,15.14,19.4s15.14-8.68,15.14-19.4V370.45c0-10.72-6.78-19.4-15.14-19.4Z"/><polygon class="cls-4" points="412.57 823.39 354.65 780.41 354.65 399.95 412.57 363.27 412.57 823.39"/><path d="M540,350c136,0,246.65,110.65,246.65,246.65S676,843.33,540,843.33,293.35,732.68,293.35,596.68,404,350,540,350m0-30.28c-152.94,0-276.93,124-276.93,276.93S387.06,873.61,540,873.61s276.93-124,276.93-276.93S692.94,319.75,540,319.75Z"/><path d="M354.65,400c-8.36,0-15.14,7.27-15.14,16.23v358c0,9,6.78,16.23,15.14,16.23s15.14-7.26,15.14-16.23v-358c0-9-6.78-16.23-15.14-16.23Z"/><path d="M418,356.36c-8.36,0-15.14,8.49-15.14,19V818c0,10.49,6.78,19,15.14,19s15.14-8.49,15.14-19V375.34c0-10.49-6.78-19-15.14-19Z"/></svg>